<svg width="12" height="14" viewBox="0 0 12 14" fill="none" xmlns="http://www.w3.org/2000/svg">
<path d="M4.207 10.667L5.834 9.04L7.461 10.667L8.168 9.96L6.54 8.333L8.167 6.706L7.46 6L5.833 7.627L4.207 6L3.5 6.707L5.127 8.333L3.5 9.96L4.207 10.667ZM10.667 1.334H10V0H8.667V1.333H3.333V0H2V1.333H1.333C1.15823 1.33313 0.985206 1.36778 0.823864 1.43497C0.662523 1.50215 0.516042 1.60054 0.392833 1.7245C0.269624 1.84845 0.172113 1.99552 0.105901 2.15726C0.0396882 2.319 0.006078 2.49223 0.00699997 2.667L0 12C0 12.3535 0.140441 12.6926 0.390427 12.9426C0.640413 13.1926 0.979467 13.333 1.333 13.333H10.666C11.0194 13.3322 11.3581 13.1915 11.6081 12.9418C11.858 12.692 11.9989 12.3534 12 12V2.667C11.9992 2.31362 11.8585 1.97492 11.6088 1.72495C11.359 1.47497 11.0204 1.33406 10.667 1.333V1.334ZM10.667 12.001H1.333V4.667H10.666L10.667 12.001Z" fill="#FF5555"/>
</svg>
