<svg width="10" height="15" viewBox="0 0 10 15" fill="none" xmlns="http://www.w3.org/2000/svg">
<path d="M5 0C3.67392 0 2.40215 0.526784 1.46447 1.46447C0.526784 2.40215 0 3.67392 0 5C0 8.75 5 14.286 5 14.286C5 14.286 10 8.75 10 5C10 4.34339 9.87067 3.69321 9.6194 3.08658C9.36812 2.47995 8.99983 1.92876 8.53553 1.46447C8.07124 1.00017 7.52004 0.631876 6.91342 0.380602C6.30679 0.129329 5.65661 0 5 0ZM5 6.786C4.64676 6.786 4.30146 6.68125 4.00775 6.485C3.71405 6.28876 3.48513 6.00982 3.34995 5.68347C3.21477 5.35712 3.1794 4.99802 3.24832 4.65157C3.31723 4.30512 3.48733 3.98688 3.73711 3.73711C3.98688 3.48733 4.30512 3.31723 4.65157 3.24832C4.99802 3.1794 5.35712 3.21477 5.68347 3.34995C6.00982 3.48513 6.28876 3.71405 6.485 4.00775C6.68125 4.30146 6.786 4.64676 6.786 5C6.786 5.47368 6.59783 5.92795 6.26289 6.26289C5.92795 6.59783 5.47368 6.786 5 6.786Z" fill="#FF5555"/>
</svg>
