<svg width="12" height="12" viewBox="0 0 12 12" fill="none" xmlns="http://www.w3.org/2000/svg">
<path d="M10.1378 1.14239C9.68088 0.683998 9.15605 0.298701 8.58182 4.46893e-05C9.20813 1.20029 9.43516 2.56905 9.22987 3.90723C9.02459 5.2454 8.39769 6.48317 7.44039 7.44047C6.48309 8.39777 5.24532 9.02467 3.90715 9.22995C2.56897 9.43524 1.20021 9.20822 -3.54896e-05 8.5819C0.424102 9.3947 1.01893 10.1062 1.7437 10.6677C2.46847 11.2291 3.30604 11.6273 4.19904 11.8349C5.09205 12.0424 6.01936 12.0545 6.91747 11.8703C7.81557 11.686 8.66323 11.3098 9.40237 10.7674C10.1415 10.225 10.7547 9.52921 11.1998 8.72773C11.645 7.92625 11.9116 7.03801 11.9815 6.12387C12.0513 5.20973 11.9227 4.29129 11.6045 3.43148C11.2863 2.57167 10.786 1.7908 10.1378 1.14239Z" fill="white"/>
</svg>
