<svg width="15" height="15" viewBox="0 0 15 15" fill="none" xmlns="http://www.w3.org/2000/svg">
<path d="M7.492 4.26706e-06C6.00898 0.00158615 4.55972 0.442798 3.32741 1.26787C2.09509 2.09294 1.13504 3.26483 0.568613 4.63542C0.00218248 6.006 -0.145201 7.51375 0.145091 8.96808C0.435383 10.4224 1.15032 11.758 2.19953 12.8061C3.24874 13.8542 4.58513 14.5677 6.03977 14.8565C7.4944 15.1452 9.00199 14.9962 10.372 14.4283C11.742 13.8604 12.9128 12.8991 13.7366 11.6659C14.5603 10.4328 15 8.98302 15 7.5C15 6.51442 14.8057 5.53849 14.4283 4.62803C14.0509 3.71757 13.4978 2.89042 12.8005 2.19387C12.1032 1.49733 11.2755 0.94505 10.3646 0.56861C9.45372 0.19217 8.47759 -0.00104703 7.492 4.26706e-06ZM7.5 13.5C6.31332 13.5 5.15328 13.1481 4.16658 12.4888C3.17989 11.8295 2.41085 10.8925 1.95673 9.7961C1.5026 8.69975 1.38378 7.49335 1.61529 6.32946C1.8468 5.16558 2.41825 4.09648 3.25736 3.25736C4.09648 2.41825 5.16558 1.8468 6.32946 1.61529C7.49335 1.38378 8.69975 1.5026 9.7961 1.95673C10.8925 2.41085 11.8295 3.17989 12.4888 4.16658C13.1481 5.15328 13.5 6.31332 13.5 7.5C13.5 9.0913 12.8679 10.6174 11.7426 11.7426C10.6174 12.8679 9.0913 13.5 7.5 13.5ZM7.875 3.75H6.75V8.25L10.687 10.612L11.25 9.69L7.875 7.69V3.75Z" fill="#9F9F9F"/>
</svg>
