<svg width="16" height="16" viewBox="0 0 16 16" fill="none" xmlns="http://www.w3.org/2000/svg">
<path d="M11.4406 10.0706H10.7183L10.4605 9.82136C11.4624 8.65415 11.9731 7.14417 11.8854 5.60844C11.7977 4.0727 11.1184 2.63068 9.99016 1.58513C8.86189 0.539579 7.37242 -0.0281733 5.83446 0.00107657C4.2965 0.0303264 2.82969 0.654303 1.742 1.742C0.654303 2.82969 0.0303264 4.2965 0.00107657 5.83446C-0.0281733 7.37242 0.539579 8.86189 1.58513 9.99016C2.63068 11.1184 4.0727 11.7977 5.60844 11.8854C7.14417 11.9731 8.65415 11.4624 9.82136 10.4605L10.0685 10.7162V11.4385L14.6365 15.9979L16.0001 14.6386L11.4406 10.0706ZM5.95859 10.0706C5.14552 10.0706 4.3507 9.82953 3.67465 9.37781C2.99861 8.92609 2.47169 8.28404 2.16054 7.53286C1.84939 6.78168 1.76798 5.9551 1.9266 5.15764C2.08523 4.36019 2.47676 3.62769 3.05169 3.05276C3.62662 2.47782 4.35913 2.08629 5.15658 1.92767C5.95403 1.76905 6.78061 1.85046 7.5318 2.16161C8.28298 2.47276 8.92503 2.99967 9.37675 3.67572C9.82847 4.35177 10.0696 5.14658 10.0696 5.95966C10.0703 6.49963 9.96445 7.03443 9.75817 7.53344C9.55189 8.03246 9.2492 8.48588 8.86744 8.86775C8.48567 9.24961 8.03232 9.55242 7.53336 9.75883C7.0344 9.96524 6.49963 10.0712 5.95966 10.0706H5.95859Z" fill="white"/>
</svg>
