<svg width="15" height="15" viewBox="0 0 15 15" fill="none" xmlns="http://www.w3.org/2000/svg">
<path d="M15 13.333V1.667C14.9987 1.22529 14.8226 0.802048 14.5103 0.48971C14.198 0.177372 13.7747 0.00131894 13.333 0H1.667C1.22529 0.00131894 0.802048 0.177372 0.48971 0.48971C0.177372 0.802048 0.00131894 1.22529 0 1.667V13.333C0.00131894 13.7747 0.177372 14.198 0.48971 14.5103C0.802048 14.8226 1.22529 14.9987 1.667 15H13.333C13.7747 14.9987 14.198 14.8226 14.5103 14.5103C14.8226 14.198 14.9987 13.7747 15 13.333ZM4.583 8.75L6.666 11.258L9.583 7.5L13.333 12.5H1.667L4.583 8.75Z" fill="#9F9F9F"/>
</svg>
