<svg width="315" height="213" viewBox="0 0 315 213" fill="none" xmlns="http://www.w3.org/2000/svg">
<path d="M96.404 98.7792H55.8603V144.115H96.404V98.7792Z" fill="#CCCCCC"/>
<path d="M35.2235 212.302H14.579L12.3678 194.61H37.4308L35.2235 212.302Z" fill="#E6E6E6"/>
<path d="M76.6669 199.487L75.9665 209.009C75.9351 209.439 75.996 209.872 76.1452 210.277C76.2944 210.682 76.5284 211.051 76.8315 211.358C77.1346 211.665 77.4999 211.904 77.9029 212.059C78.3059 212.214 78.7373 212.281 79.1683 212.256L84.059 211.955C84.2856 211.942 84.5064 211.878 84.7056 211.769C84.9049 211.661 85.0777 211.509 85.2119 211.326C85.3461 211.143 85.4384 210.933 85.4821 210.71C85.5257 210.487 85.5198 210.258 85.4648 210.037L82.7503 199.178L76.6669 199.487Z" fill="#E6E6E6"/>
<path d="M117.577 205.118C123.333 206.464 127.445 208.378 130.147 210.969C131.109 211.884 132.368 212.424 133.694 212.49C135.093 212.623 136.503 212.43 137.814 211.924C138.081 211.807 138.311 211.62 138.481 211.383C138.652 211.147 138.755 210.869 138.782 210.579C138.813 210.284 138.764 209.985 138.641 209.715C138.518 209.445 138.325 209.213 138.081 209.043L124.435 199.327L118.631 201.648L117.279 203C117.132 203.147 117.022 203.326 116.956 203.522C116.89 203.718 116.871 203.927 116.899 204.132C116.928 204.338 117.004 204.533 117.121 204.704C117.238 204.875 117.393 205.017 117.574 205.118H117.577Z" fill="#E6E6E6"/>
<path d="M99.8629 49.6447L60.8411 49.2835C60.8648 43.5844 62.3492 37.9864 65.1525 33.0244C66.7432 29.9987 67.2381 26.5159 66.5533 23.1669C66.1755 20.8884 66.3997 18.5506 67.2037 16.3855C68.0077 14.2203 69.3635 12.3028 71.1369 10.823C73.9246 8.56083 77.4435 7.39641 81.0304 7.54916L81.7878 7.58119C84.2561 7.68375 86.659 8.40475 88.776 9.67802C90.893 10.9513 92.6561 12.736 93.9036 14.8682C95.1714 17.1444 95.6826 19.7647 95.3634 22.3504C95.1564 24.928 95.7609 27.5058 97.0924 29.7226C99.4787 35.1706 99.996 42.1435 99.8629 49.6447Z" fill="#2F2E41"/>
<path d="M125.971 199.835L118.312 201.836L81.0185 120.59L83.3497 199.841H75.6915C67.5079 162.556 52.7326 119.525 59.3753 105.939L98.9975 103.608L125.971 199.835Z" fill="#6C63FF"/>
<path d="M80.6853 36.0071C86.3864 36.0071 91.0081 31.3855 91.0081 25.6844C91.0081 19.9833 86.3864 15.3616 80.6853 15.3616C74.9842 15.3616 70.3626 19.9833 70.3626 25.6844C70.3626 31.3855 74.9842 36.0071 80.6853 36.0071Z" fill="#FFB9B9"/>
<path d="M89.675 44.6639L72.6925 43.6634C74.3505 40.2547 74.9312 36.422 74.3574 32.6752H87.0105C86.9825 35.3567 88.3162 39.9923 89.675 44.6639Z" fill="#FFB9B9"/>
<path d="M100.33 106.6L63.0362 109.264L66.8654 43.1672L73.359 41.3361L80.6841 43.0011L88.0092 39.338L92.6708 41.003L100.33 106.6Z" fill="#6C63FF"/>
<path d="M69.3635 154.215L43.8883 148.388C51.4625 123.274 65.1082 65.8078 60.7037 45.3304L74.0231 39.337L69.3635 154.215Z" fill="#E6E6E6"/>
<path d="M57.0437 81.6256L47.3873 75.6323L55.6229 51.5128C56.5423 49.0256 58.3015 46.9376 60.5967 45.6095L63.3713 44.0036L61.7063 68.3062L57.0437 81.6256Z" fill="#E6E6E6"/>
<path d="M122.474 148.721C114.435 153.373 94.3377 155.965 85.5138 152.717C84.8644 130.023 83.5907 65.8288 87.678 38.6707L102.329 44.664L100.997 62.6451C93.9925 78.0226 114.332 131.603 122.474 148.721Z" fill="#E6E6E6"/>
<path d="M121.309 78.629L112.318 75.6273L100.33 61.9746L102.331 44.66L122.31 72.6306L121.309 78.629Z" fill="#E6E6E6"/>
<path d="M93.1359 91.5891C93.2831 92.2346 93.6803 92.7954 94.2403 93.1486C94.8004 93.5017 95.4776 93.6185 96.1235 93.4732L103.756 91.7452L102.655 86.8735L95.0229 88.6014C94.3774 88.7487 93.8166 89.1459 93.4635 89.7059C93.1103 90.266 92.9936 90.9432 93.1389 91.5891H93.1359Z" fill="#FFB9B9"/>
<path d="M89.6759 23.0208C87.0086 21.8421 84.1336 21.2056 81.2181 21.1484C78.3026 21.0912 75.4048 21.6145 72.6934 22.6876L70.3621 14.363H91.674L89.6759 23.0208Z" fill="#2F2E41"/>
<path d="M99.9978 85.954L104.326 93.9455C111.607 91.9144 117.917 85.5128 123.972 77.9626L122.307 72.6346L111.984 75.2981L99.9978 85.954Z" fill="#E6E6E6"/>
<path d="M96.834 69.4719H95.5023C95.5023 50.6333 91.6231 37.506 87.844 37.506L87.5108 36.1743C90.9007 36.1743 93.0619 41.6383 94.2776 46.2219C96.0859 53.8367 96.9445 61.6461 96.834 69.4719Z" fill="#3F3D56"/>
<path d="M66.2 64.8092H64.8683C64.8683 47.5566 68.7705 36.8386 74.5247 36.8386L74.1915 38.1703C70.2133 38.1703 66.2 46.4079 66.2 64.8092Z" fill="#3F3D56"/>
<path d="M96.1688 73.1349C98.0079 73.1349 99.4987 71.644 99.4987 69.805C99.4987 67.966 98.0079 66.4751 96.1688 66.4751C94.3298 66.4751 92.839 67.966 92.839 69.805C92.839 71.644 94.3298 73.1349 96.1688 73.1349Z" fill="#3F3D56"/>
<path d="M60.8718 72.8017H59.5401C59.5401 68.028 62.2286 64.1439 65.5334 64.1439V65.4756C62.964 65.4756 60.8718 68.7644 60.8718 72.8017Z" fill="#3F3D56"/>
<path d="M71.529 72.8017H70.1972C70.1972 68.7624 68.1061 65.4756 65.5356 65.4756V64.1439C68.8395 64.1439 71.529 68.028 71.529 72.8017Z" fill="#3F3D56"/>
<path d="M70.8618 74.4656C71.5973 74.4656 72.1936 73.8693 72.1936 73.1338C72.1936 72.3983 71.5973 71.8021 70.8618 71.8021C70.1263 71.8021 69.5301 72.3983 69.5301 73.1338C69.5301 73.8693 70.1263 74.4656 70.8618 74.4656Z" fill="#3F3D56"/>
<path d="M60.2064 74.4656C60.9419 74.4656 61.5382 73.8693 61.5382 73.1338C61.5382 72.3983 60.9419 71.8021 60.2064 71.8021C59.4709 71.8021 58.8747 72.3983 58.8747 73.1338C58.8747 73.8693 59.4709 74.4656 60.2064 74.4656Z" fill="#3F3D56"/>
<path d="M43.5575 60.887L51.8682 62.3709L70.8628 89.379L60.7712 87.0087L43.5575 60.887Z" fill="#6C63FF"/>
<path d="M42.0835 60.5558C41.9569 60.5576 41.833 60.5934 41.7249 60.6594C41.6168 60.7255 41.5285 60.8194 41.4692 60.9313C41.4098 61.0432 41.3817 61.169 41.3877 61.2955C41.3937 61.422 41.4336 61.5446 41.5032 61.6504L59.2581 88.5895C59.3565 88.7409 59.5096 88.8484 59.6854 88.8897L67.946 90.8337C68.0852 90.8665 68.2311 90.8562 68.3644 90.8041C68.4976 90.752 68.6118 90.6606 68.6919 90.5421C68.772 90.4236 68.8142 90.2835 68.8129 90.1404C68.8115 89.9974 68.7667 89.8581 68.6844 89.7411L49.1905 62.0257C49.1376 61.9502 49.0704 61.8859 48.9926 61.8364C48.9148 61.787 48.828 61.7533 48.7372 61.7375L42.2156 60.5728C42.1716 60.565 42.1271 60.5609 42.0825 60.5608L42.0835 60.5558Z" fill="#3F3D56"/>
<path d="M53.1586 79.8166L53.6519 84.7874L61.4382 84.0139C62.0702 83.9158 62.6406 83.5793 63.0322 83.0737C63.4237 82.568 63.6067 81.9316 63.5436 81.2951C63.4804 80.6587 63.1759 80.0707 62.6926 79.6518C62.2093 79.233 61.5839 79.0152 60.9449 79.0431L53.1586 79.8166Z" fill="#FFB9B9"/>
<path d="M46.3877 79.2383C46.3991 80.9331 47.0798 82.5547 48.2815 83.7499C49.4832 84.945 51.1085 85.6168 52.8033 85.6189H54.084L55.0166 77.8505L47.2982 75.072L46.3877 79.2383Z" fill="#E6E6E6"/>
<path d="M314.971 0H163.117V79.9817H314.971V0Z" fill="#E6E6E6"/>
<path d="M167.539 75.5582H310.547V4.41848H167.539V75.5582Z" fill="white"/>
<path d="M229.46 14.7432H178.597V65.6066H229.46V14.7432Z" fill="#3F3D56"/>
<path d="M217.298 37.9622C218.112 37.9622 218.771 37.3024 218.771 36.4884C218.771 35.6744 218.112 35.0146 217.298 35.0146C216.484 35.0146 215.824 35.6744 215.824 36.4884C215.824 37.3024 216.484 37.9622 217.298 37.9622Z" fill="#6C63FF"/>
<path d="M211.768 32.8023C212.582 32.8023 213.242 32.1425 213.242 31.3285C213.242 30.5145 212.582 29.8547 211.768 29.8547C210.954 29.8547 210.294 30.5145 210.294 31.3285C210.294 32.1425 210.954 32.8023 211.768 32.8023Z" fill="#6C63FF"/>
<path d="M211.032 36.4894C210.49 36.4895 209.958 36.6402 209.496 36.9246C209.089 36.3128 208.611 35.7515 208.071 35.2527C208.077 35.1737 208.083 35.0956 208.083 35.0146C208.084 34.4361 207.914 33.8703 207.595 33.3877C207.276 32.9052 206.822 32.5272 206.289 32.3009C205.757 32.0746 205.17 32.0101 204.601 32.1152C204.032 32.2204 203.507 32.4907 203.091 32.8924C202.301 32.7802 201.5 32.7732 200.708 32.8714C200.708 32.8484 200.708 32.8254 200.708 32.8023C200.709 32.3088 200.586 31.8229 200.35 31.3893C200.114 30.9557 199.773 30.5883 199.358 30.3207C198.944 30.0531 198.468 29.8939 197.976 29.8576C197.484 29.8214 196.99 29.9093 196.541 30.1134C196.091 30.3174 195.7 30.631 195.403 31.0253C195.107 31.4197 194.914 31.8823 194.842 32.3707C194.77 32.8591 194.823 33.3576 194.994 33.8206C195.165 34.2835 195.45 34.6961 195.821 35.0206C195.328 35.4434 194.88 35.9169 194.486 36.4334C194.122 36.1304 193.69 35.9196 193.228 35.8187C192.765 35.7178 192.285 35.7298 191.828 35.8538C191.371 35.9777 190.95 36.2099 190.602 36.5307C190.253 36.8515 189.988 37.2515 189.826 37.6968C189.665 38.1421 189.614 38.6197 189.677 39.0891C189.739 39.5585 189.914 40.0059 190.186 40.3935C190.458 40.7811 190.819 41.0975 191.239 41.3159C191.66 41.5343 192.126 41.6483 192.6 41.6483H192.609C192.609 41.7703 192.6 41.8934 192.6 42.0175C192.6 42.7592 192.689 43.4983 192.866 44.2187C191.99 44.5486 191.212 45.0957 190.605 45.8086C189.999 46.5214 189.583 47.3767 189.397 48.2942C189.212 49.2117 189.262 50.1613 189.544 51.0539C189.826 51.9466 190.33 52.753 191.008 53.3976C191.687 54.0422 192.519 54.5037 193.425 54.739C194.331 54.9742 195.282 54.9754 196.188 54.7425C197.095 54.5096 197.928 54.0502 198.608 53.4074C199.289 52.7646 199.795 51.9595 200.079 51.0675C202.13 51.4616 204.254 51.1466 206.102 50.174C206.291 50.6182 206.586 51.0092 206.961 51.3128C207.336 51.6164 207.78 51.8232 208.254 51.9151C208.728 52.0071 209.217 51.9814 209.678 51.8402C210.14 51.6991 210.56 51.4468 210.901 51.1055C211.242 50.7643 211.494 50.3445 211.636 49.883C211.777 49.4215 211.802 48.9324 211.71 48.4587C211.619 47.9849 211.412 47.5409 211.108 47.1658C210.805 46.7906 210.413 46.4957 209.969 46.3069C210.608 45.095 210.967 43.7555 211.019 42.3867H211.028C211.81 42.3867 212.56 42.076 213.113 41.523C213.666 40.9701 213.977 40.2201 213.977 39.438C213.977 38.656 213.666 37.906 213.113 37.353C212.56 36.8001 211.81 36.4894 211.028 36.4894H211.032Z" fill="#6C63FF"/>
<path d="M210.294 13.6376H195.551V15.8489H210.294V13.6376Z" fill="#E6E6E6"/>
<path d="M294.331 14.7432H243.467V65.6066H294.331V14.7432Z" fill="#3F3D56"/>
<path d="M278.555 49.2415C278.922 49.2415 279.219 48.9445 279.219 48.5781C279.219 48.2117 278.922 47.9147 278.555 47.9147C278.189 47.9147 277.892 48.2117 277.892 48.5781C277.892 48.9445 278.189 49.2415 278.555 49.2415Z" fill="#6C63FF"/>
<path d="M276.067 46.9202C276.434 46.9202 276.731 46.6232 276.731 46.2568C276.731 45.8905 276.434 45.5935 276.067 45.5935C275.701 45.5935 275.404 45.8905 275.404 46.2568C275.404 46.6232 275.701 46.9202 276.067 46.9202Z" fill="#6C63FF"/>
<path d="M275.735 48.5792C275.49 48.5805 275.251 48.6498 275.044 48.7793C274.86 48.5039 274.645 48.2513 274.402 48.0268C274.402 47.9918 274.407 47.9558 274.407 47.9198C274.408 47.6594 274.331 47.4046 274.188 47.1874C274.044 46.9701 273.84 46.7999 273.6 46.6981C273.36 46.5963 273.096 46.5674 272.84 46.6149C272.584 46.6624 272.347 46.7842 272.16 46.9652C271.805 46.915 271.444 46.9119 271.088 46.9562C271.088 46.9462 271.088 46.9362 271.088 46.9252C271.088 46.7035 271.032 46.4854 270.925 46.2909C270.819 46.0963 270.665 45.9317 270.479 45.8118C270.292 45.6919 270.079 45.6207 269.857 45.6047C269.636 45.5887 269.415 45.6285 269.213 45.7202C269.011 45.812 268.835 45.9529 268.702 46.13C268.568 46.3072 268.482 46.515 268.449 46.7343C268.417 46.9537 268.44 47.1777 268.516 47.3859C268.593 47.594 268.72 47.7796 268.887 47.9258C268.665 48.116 268.464 48.3289 268.287 48.5611C268.123 48.4248 267.929 48.3299 267.721 48.2845C267.512 48.239 267.296 48.2444 267.091 48.3002C266.885 48.3559 266.696 48.4604 266.539 48.6048C266.382 48.7492 266.263 48.9291 266.19 49.1295C266.118 49.3299 266.095 49.5448 266.123 49.756C266.151 49.9673 266.23 50.1686 266.352 50.343C266.474 50.5174 266.637 50.6598 266.826 50.758C267.015 50.8563 267.225 50.9075 267.438 50.9074C267.438 50.9625 267.438 51.0175 267.438 51.0736C267.438 51.407 267.479 51.7393 267.558 52.0631C267.164 52.2116 266.814 52.4578 266.542 52.7786C266.269 53.0993 266.082 53.4841 265.998 53.8969C265.915 54.3097 265.938 54.7369 266.064 55.1385C266.191 55.5401 266.418 55.9029 266.723 56.1929C267.029 56.4828 267.403 56.6905 267.81 56.7963C268.218 56.9022 268.646 56.9027 269.054 56.798C269.462 56.6932 269.836 56.4866 270.142 56.1974C270.449 55.9083 270.676 55.5461 270.804 55.1448C271.727 55.3227 272.683 55.1816 273.515 54.7446C273.6 54.9445 273.732 55.1204 273.901 55.257C274.07 55.3936 274.27 55.4867 274.483 55.5281C274.696 55.5695 274.916 55.5579 275.124 55.4944C275.332 55.4309 275.52 55.3174 275.674 55.1638C275.828 55.0103 275.941 54.8214 276.005 54.6137C276.068 54.4061 276.08 54.186 276.038 53.9728C275.997 53.7596 275.904 53.5599 275.767 53.3911C275.631 53.2223 275.455 53.0896 275.255 53.0046C275.542 52.4593 275.703 51.8565 275.727 51.2406C276.079 51.2406 276.416 51.1009 276.665 50.8521C276.914 50.6032 277.054 50.2658 277.054 49.9139C277.054 49.562 276.914 49.2246 276.665 48.9758C276.416 48.727 276.079 48.5872 275.727 48.5872L275.735 48.5792Z" fill="#6C63FF"/>
<path d="M283.761 36.6515C284.127 36.6515 284.424 36.3545 284.424 35.9882C284.424 35.6218 284.127 35.3248 283.761 35.3248C283.394 35.3248 283.097 35.6218 283.097 35.9882C283.097 36.3545 283.394 36.6515 283.761 36.6515Z" fill="#6C63FF"/>
<path d="M285.321 33.6277C285.688 33.6277 285.985 33.3307 285.985 32.9644C285.985 32.598 285.688 32.301 285.321 32.301C284.955 32.301 284.658 32.598 284.658 32.9644C284.658 33.3307 284.955 33.6277 285.321 33.6277Z" fill="#6C63FF"/>
<path d="M282.999 33.2747C282.933 33.0396 282.803 32.8276 282.623 32.6623C282.838 32.4116 283.023 32.1362 283.173 31.8418C283.208 31.8348 283.243 31.8278 283.273 31.8178C283.524 31.7475 283.748 31.6049 283.919 31.4079C284.089 31.2108 284.197 30.9681 284.23 30.7099C284.263 30.4516 284.22 30.1894 284.105 29.9558C283.99 29.7223 283.808 29.5277 283.584 29.3965C283.536 29.0407 283.442 28.6928 283.303 28.3619L283.332 28.3549C283.546 28.295 283.742 28.1823 283.901 28.0273C284.06 27.8722 284.177 27.6797 284.242 27.4675C284.308 27.2552 284.319 27.03 284.274 26.8124C284.23 26.5948 284.132 26.3918 283.989 26.2221C283.845 26.0523 283.662 25.9212 283.455 25.8408C283.248 25.7603 283.024 25.7331 282.804 25.7617C282.584 25.7902 282.374 25.8736 282.194 26.0041C282.015 26.1347 281.871 26.3082 281.776 26.5089C281.532 26.3466 281.272 26.2105 281 26.1026C281.087 25.9081 281.126 25.6954 281.113 25.4827C281.1 25.27 281.037 25.0634 280.927 24.8805C280.818 24.6977 280.666 24.5438 280.485 24.432C280.303 24.3203 280.098 24.2538 279.885 24.2384C279.673 24.2229 279.459 24.2588 279.264 24.3432C279.068 24.4275 278.895 24.5577 278.761 24.7229C278.626 24.888 278.533 25.0831 278.49 25.2918C278.446 25.5004 278.454 25.7164 278.512 25.9215C278.458 25.9346 278.405 25.9476 278.351 25.9626C278.029 26.0531 277.72 26.1821 277.429 26.3468C277.179 26.0076 276.848 25.7374 276.465 25.5616C276.082 25.3858 275.661 25.3101 275.241 25.3416C274.821 25.3731 274.416 25.5108 274.064 25.7417C273.711 25.9727 273.424 26.2893 273.227 26.662C273.031 27.0346 272.932 27.451 272.941 27.8721C272.95 28.2932 273.065 28.7052 273.277 29.0695C273.488 29.4337 273.789 29.7383 274.15 29.9545C274.512 30.1708 274.922 30.2918 275.343 30.306C275.422 31.2429 275.818 32.125 276.465 32.8074C276.295 32.9434 276.162 33.119 276.076 33.3186C275.991 33.5182 275.955 33.7358 275.973 33.9523C275.992 34.1688 276.063 34.3775 276.18 34.5601C276.298 34.7427 276.458 34.8937 276.648 34.9997C276.838 35.1057 277.05 35.1635 277.268 35.1681C277.485 35.1727 277.7 35.1239 277.894 35.026C278.088 34.9281 278.254 34.7841 278.38 34.6066C278.505 34.4291 278.585 34.2236 278.612 34.0081C279.215 34.1367 279.839 34.1285 280.438 33.9841C280.485 34.1518 280.565 34.3085 280.673 34.4454C280.781 34.5823 280.914 34.6966 281.066 34.7818C281.218 34.867 281.386 34.9214 281.559 34.942C281.732 34.9625 281.907 34.9488 282.075 34.9016C282.242 34.8543 282.399 34.7745 282.536 34.6667C282.673 34.5589 282.787 34.4251 282.873 34.2731C282.958 34.1211 283.012 33.9538 283.033 33.7808C283.053 33.6078 283.04 33.4324 282.992 33.2646L282.999 33.2747Z" fill="#6C63FF"/>
<path d="M258.064 27.6365C258.43 27.6365 258.727 27.3395 258.727 26.9731C258.727 26.6067 258.43 26.3097 258.064 26.3097C257.698 26.3097 257.401 26.6067 257.401 26.9731C257.401 27.3395 257.698 27.6365 258.064 27.6365Z" fill="#6C63FF"/>
<path d="M254.672 27.9086C255.039 27.9086 255.336 27.6116 255.336 27.2452C255.336 26.8789 255.039 26.5819 254.672 26.5819C254.306 26.5819 254.009 26.8789 254.009 27.2452C254.009 27.6116 254.306 27.9086 254.672 27.9086Z" fill="#6C63FF"/>
<path d="M256.164 29.0552C256 29.2354 255.889 29.4578 255.843 29.6975C255.516 29.6471 255.185 29.6357 254.856 29.6635C254.832 29.6375 254.807 29.6115 254.78 29.5875C254.588 29.4117 254.349 29.2963 254.092 29.2559C253.834 29.2154 253.571 29.2516 253.334 29.3599C253.097 29.4682 252.898 29.6439 252.76 29.8649C252.622 30.086 252.553 30.3427 252.56 30.603C252.284 30.8315 252.038 31.0956 251.831 31.3885L251.809 31.3665C251.645 31.2175 251.446 31.1121 251.23 31.0598C251.015 31.0075 250.79 31.01 250.576 31.0671C250.362 31.1241 250.165 31.2339 250.004 31.3865C249.844 31.539 249.723 31.7294 249.655 31.9402C249.587 32.1511 249.573 32.3757 249.613 32.5936C249.654 32.8114 249.749 33.0156 249.889 33.1874C250.029 33.3592 250.21 33.4932 250.415 33.5771C250.62 33.661 250.843 33.6922 251.063 33.6678C251.054 33.96 251.076 34.2525 251.128 34.5402C250.916 34.5693 250.716 34.6488 250.542 34.772C250.368 34.8951 250.226 35.0583 250.129 35.2477C250.031 35.4372 249.981 35.6473 249.982 35.8603C249.983 36.0734 250.035 36.283 250.134 36.4716C250.233 36.6602 250.376 36.8221 250.551 36.9438C250.726 37.0654 250.928 37.1431 251.139 37.1704C251.35 37.1977 251.565 37.1736 251.765 37.1004C251.965 37.0271 252.144 36.9068 252.288 36.7495C252.327 36.7885 252.367 36.8265 252.408 36.8646C252.655 37.0896 252.928 37.2841 253.221 37.4439C253.064 37.8351 253.01 38.2595 253.063 38.6774C253.116 39.0953 253.274 39.493 253.522 39.8331C253.771 40.1731 254.102 40.4445 254.484 40.6217C254.866 40.7989 255.287 40.876 255.707 40.846C256.127 40.816 256.533 40.6797 256.886 40.4499C257.239 40.2202 257.528 39.9045 257.725 39.5325C257.923 39.1605 258.023 38.7444 258.016 38.3233C258.009 37.9021 257.894 37.4897 257.684 37.1247C258.438 36.5626 258.977 35.761 259.215 34.8514C259.42 34.9234 259.639 34.9439 259.854 34.9113C260.069 34.8787 260.272 34.7939 260.446 34.6644C260.62 34.5348 260.76 34.3645 260.853 34.1683C260.946 33.9721 260.99 33.7561 260.98 33.5392C260.97 33.3223 260.907 33.1112 260.797 32.9243C260.686 32.7374 260.531 32.5805 260.346 32.4673C260.161 32.3542 259.951 32.2882 259.734 32.2753C259.517 32.2623 259.3 32.3028 259.103 32.393C258.894 31.8133 258.557 31.2878 258.118 30.8552C258.356 30.5953 258.48 30.2517 258.464 29.9002C258.448 29.5487 258.293 29.2179 258.033 28.9806C257.773 28.7434 257.429 28.6191 257.078 28.6352C256.726 28.6512 256.396 28.8063 256.158 29.0662L256.164 29.0552Z" fill="#6C63FF"/>
<path d="M275.165 13.6376H260.421V15.8489H275.165V13.6376Z" fill="#E6E6E6"/>
<path d="M9.27915 188.06C14.5941 195.178 25.6263 195.926 25.6263 195.926C25.6263 195.926 28.0416 185.136 22.7247 178.017C17.4077 170.898 6.37754 170.15 6.37754 170.15C6.37754 170.15 3.96418 180.947 9.27915 188.06Z" fill="#E6E6E6"/>
<path d="M36.3544 190.738C32.8474 195.434 25.5674 195.929 25.5674 195.929C25.5674 195.929 23.9735 188.808 27.4804 184.111C30.9874 179.414 38.2675 178.92 38.2675 178.92C38.2675 178.92 39.8614 186.044 36.3544 190.738Z" fill="#E6E6E6"/>
<path d="M191.497 212.175H0V213H191.497V212.175Z" fill="#3F3D56"/>
</svg>
