<svg width="94" height="258" viewBox="0 0 94 258" fill="none" xmlns="http://www.w3.org/2000/svg">
<path d="M9.97801 111.642C9.97801 111.642 -4.39001 122.931 2.79399 125.497C9.97799 128.063 14.594 116.261 14.594 116.261L9.97801 111.642Z" fill="#FFB8B8"/>
<path d="M10.4911 107.537L7.41211 112.668C7.41211 112.668 12.5431 112.668 13.5701 120.368L17.6751 115.237L10.4911 107.537Z" fill="#CFCCE0"/>
<path d="M78.7391 224.533L79.2521 239.927L73.0941 243.519L70.5281 241.98L71.0411 224.533H78.7391Z" fill="#FFB8B8"/>
<path d="M42.3058 220.428L43.3318 236.848L28.9639 243.006L29.9859 234.283C29.9859 234.283 34.0909 227.612 33.0649 220.428H42.3058Z" fill="#FFB8B8"/>
<path d="M64.371 96.762C64.371 96.762 72.581 118.314 74.121 131.655C75.661 144.996 78.2261 180.403 78.2261 180.403L83.358 226.072L68.9901 228.125L62.832 181.942L48.9771 136.274L45.8981 181.943L43.332 223.507L29.9901 224.02L28.9641 180.92L23.3201 126.011L26.399 99.841L64.371 96.762Z" fill="white"/>
<path d="M72.0681 240.953C72.0681 240.953 72.9101 232.335 79.1601 237.153L80.2791 236.331L85.4101 247.62C85.4101 247.62 91.5681 256.343 80.7921 257.37C70.0161 258.397 71.0421 247.62 71.0421 247.62L70.0161 243.002L70.5291 239.978L72.0681 240.953Z" fill="#2F2E41"/>
<path d="M42.3062 230.691C43.5692 231.413 44.616 232.46 45.3378 233.723C46.0597 234.987 46.4302 236.42 46.4111 237.875C46.4111 243.006 45.8981 243.52 45.8981 243.52L38.1981 245.573C38.1981 245.573 33.0671 245.06 29.9881 248.139C26.9091 251.218 11.5151 253.27 11.5151 249.165C11.5151 245.06 24.3431 238.389 24.3431 238.389C24.3431 238.389 28.1532 231.955 30.8661 232.607C33.5791 233.259 34.6061 234.284 34.6061 234.798C34.1786 236.197 33.6646 237.568 33.0671 238.903C33.0671 238.903 41.7922 236.849 42.3062 230.691Z" fill="#2F2E41"/>
<path d="M41.2789 33.645C48.3636 33.645 54.1069 27.9017 54.1069 20.817C54.1069 13.7323 48.3636 7.98901 41.2789 7.98901C34.1942 7.98901 28.4509 13.7323 28.4509 20.817C28.4509 27.9017 34.1942 33.645 41.2789 33.645Z" fill="#FFB8B8"/>
<path d="M50.7731 24.152L56.4171 36.98L41.0231 59.045C41.0231 59.045 39.9971 34.927 36.9181 30.822C33.8391 26.717 50.7731 24.152 50.7731 24.152Z" fill="#FFB8B8"/>
<path d="M43.5891 50.835L46.155 44.164L48.207 44.677L50.7731 42.624L54.3651 31.335L59.4971 34.927L66.168 102.148L24.603 103.179L30.2471 56.479L35.3781 43.138L39.0781 38.238L41.532 45.7L43.5891 50.835Z" fill="#1E1D25"/>
<path d="M55.3911 79.572L56.9611 33.154C56.9611 33.154 60.0091 33.389 61.0351 34.928C62.0611 36.467 78.9951 39.546 78.9951 39.546L75.9161 87.268C75.9161 87.268 88.7441 125.24 84.1261 127.293C79.5081 129.346 71.2981 128.832 71.2981 128.832L55.3911 79.572Z" fill="url(#paint0_linear_0_1)"/>
<path d="M30.5039 73.674L35.9469 42.39L23.8329 50.582L26.9119 73.16L24.3459 88.554C24.3459 88.554 14.5959 131.144 17.6749 132.684C20.7539 134.224 24.3459 132.684 24.3459 132.684L30.5039 89.584V73.674Z" fill="url(#paint1_linear_0_1)"/>
<path d="M27.4251 49.553L23.8331 50.579L22.2941 71.105L19.7281 89.065L7.41309 111.13C7.41309 111.13 13.5711 107.025 16.1361 118.83L29.6991 95.217L27.4251 49.553Z" fill="url(#paint2_linear_0_1)"/>
<path d="M67.4489 107.537C67.4489 107.537 53.0809 118.826 60.2649 121.392C67.4489 123.958 72.0649 112.156 72.0649 112.156L67.4489 107.537Z" fill="#FFB8B8"/>
<path d="M76.1769 113.182L71.5589 118.826L65.4009 108.05L67.9669 103.432L76.1769 113.182Z" fill="#CFCCE0"/>
<path d="M75.147 41.343L79.252 39.292C79.252 39.292 82.3309 43.397 82.8439 46.992C83.3569 50.587 85.923 55.202 85.923 57.768C85.923 60.334 93.1069 84.451 93.1069 84.451L76.687 117.805C76.687 117.805 73.0949 105.49 65.3979 104.463L78.226 86.503L71.0419 73.675L75.147 41.343Z" fill="url(#paint3_linear_0_1)"/>
<path d="M52.0201 8.59401L54.4391 7.62601C54.4391 7.62601 49.3811 2.05701 42.3391 2.54201L44.3181 0.363007C44.3181 0.363007 39.4801 -1.57399 35.0811 3.51101C32.454 6.31703 30.2157 9.46314 28.4261 12.865H25.8351L26.9161 15.246L23.1321 17.627L27.0161 17.199C26.7847 18.5028 26.7493 19.8338 26.9111 21.148C27.0797 22.463 27.7527 23.661 28.7881 24.489C28.7881 24.489 31.7881 18.279 31.7881 17.311V19.732C31.7881 19.732 34.2071 17.553 34.2071 16.1L35.5261 17.795L36.1861 15.132L44.3231 17.795L43.0041 15.616L48.0621 16.342L46.0821 13.682C46.0821 13.682 51.8001 16.83 52.0201 19.493C52.2661 21.3393 52.9125 23.1096 53.9141 24.68C53.9141 24.68 58.3971 12.226 52.0201 8.59401Z" fill="#2F2E41"/>
<path d="M51.7991 20.56C52.5927 20.56 53.2361 19.7559 53.2361 18.764C53.2361 17.7721 52.5927 16.968 51.7991 16.968C51.0054 16.968 50.3621 17.7721 50.3621 18.764C50.3621 19.7559 51.0054 20.56 51.7991 20.56Z" fill="#FFB8B8"/>
<defs>
<linearGradient id="paint0_linear_0_1" x1="53.7853" y1="44.4507" x2="101.474" y2="56.0315" gradientUnits="userSpaceOnUse">
<stop stop-color="#AAD400"/>
<stop offset="1" stop-color="#00D4AA"/>
</linearGradient>
<linearGradient id="paint1_linear_0_1" x1="24.0379" y1="112.898" x2="5.01018" y2="107.368" gradientUnits="userSpaceOnUse">
<stop stop-color="#AAD400"/>
<stop offset="1" stop-color="#00D4AA"/>
</linearGradient>
<linearGradient id="paint2_linear_0_1" x1="18.5561" y1="49.553" x2="18.5561" y2="118.83" gradientUnits="userSpaceOnUse">
<stop stop-color="#AAD400"/>
<stop offset="1" stop-color="#00D4AA"/>
</linearGradient>
<linearGradient id="paint3_linear_0_1" x1="79.2524" y1="105.243" x2="59.4503" y2="66.7736" gradientUnits="userSpaceOnUse">
<stop stop-color="#AAD400"/>
<stop offset="1" stop-color="#00D4AA"/>
</linearGradient>
</defs>
</svg>
